<svg width="118" height="118" viewBox="0 0 118 118" fill="none" xmlns="http://www.w3.org/2000/svg">
<rect width="118" height="118" fill="#E5E5E5"/>
<rect width="118" height="118" fill="black"/>
<mask id="mask0_2_4" style="mask-type:alpha" maskUnits="userSpaceOnUse" x="31" y="12" width="56" height="94">
<mask id="path-2-inside-1_2_4" fill="white">
<path fill-rule="evenodd" clip-rule="evenodd" d="M86.064 23.281V34.582L78.564 38.849C74.439 41.196 71.064 43.446 71.064 43.849C71.064 44.252 74.453 46.51 78.596 48.867L86.128 53.153L85.846 64.286L85.564 75.419L59.103 90.628C44.55 98.993 32.287 105.618 31.853 105.35C31.419 105.081 31.064 100.152 31.064 94.396V83.931L35.314 81.403C37.652 80.013 41.327 77.83 43.482 76.552L47.399 74.227L39.2 69.498L31 64.768L31.282 53.768L31.564 42.768L58.064 27.394C72.639 18.939 84.902 12.011 85.314 12C85.726 11.989 86.064 17.065 86.064 23.281ZM75.809 20.137C73.194 21.797 71.286 23.53 71.569 23.987C72.208 25.021 80.996 29.98 82.19 29.98C82.671 29.98 83.064 27.055 83.064 23.48C83.064 15.938 82.694 15.767 75.809 20.137ZM59.312 29.649C55.873 31.583 53.286 33.53 53.562 33.977C54.311 35.189 65.196 41.182 65.711 40.666C65.956 40.421 66.023 37.051 65.86 33.177L65.564 26.133L59.312 29.649ZM69.064 33.438C69.064 37.586 69.265 40.98 69.51 40.98C69.756 40.98 72.719 39.361 76.094 37.383C82.955 33.362 83.109 33.954 73.814 28.621L69.064 25.896V33.438ZM41.266 39.964C36.554 42.725 35.295 43.905 36.266 44.645C38.819 46.593 46.94 50.98 47.992 50.98C49.213 50.98 49.52 37.349 48.314 36.686C47.902 36.459 44.73 37.934 41.266 39.964ZM51.064 43.422C51.064 47.579 51.344 50.98 51.687 50.98C53.157 50.98 64.05 44.438 63.805 43.702C63.656 43.257 60.729 41.311 57.299 39.378L51.064 35.864V43.422ZM33.064 53.98C33.064 58.511 33.462 60.98 34.192 60.98C35.87 60.98 46.064 54.969 46.064 53.98C46.064 52.991 35.87 46.98 34.192 46.98C33.462 46.98 33.064 49.449 33.064 53.98ZM58.332 50.318C55.454 52.057 53.091 53.745 53.082 54.069C53.072 54.394 54.077 55.154 55.314 55.758C56.551 56.363 59.476 58.036 61.814 59.476L66.064 62.093V54.537C66.064 49.111 65.711 47.005 64.814 47.068C64.127 47.117 61.209 48.579 58.332 50.318ZM69.064 53.98C69.064 57.83 69.321 60.98 69.635 60.98C70.586 60.98 82.04 54.517 82.04 53.98C82.04 53.443 70.586 46.98 69.635 46.98C69.321 46.98 69.064 50.13 69.064 53.98ZM41.564 60.011C38.814 61.623 36.564 63.44 36.564 64.049C36.564 65.387 47.641 72.07 48.476 71.235C48.799 70.911 49.064 67.572 49.064 63.813C49.064 55.902 48.802 55.769 41.564 60.011ZM51.064 64.571V72.162L57.281 68.671C60.7 66.75 63.628 64.789 63.786 64.313C64.044 63.539 53.223 56.98 51.687 56.98C51.344 56.98 51.064 60.396 51.064 64.571ZM76.314 60.273C73.426 61.987 71.064 63.725 71.064 64.136C71.064 64.809 82.54 71.98 83.618 71.98C83.863 71.98 84.064 68.605 84.064 64.48C84.064 59.099 83.711 57.005 82.814 57.069C82.127 57.118 79.202 58.56 76.314 60.273ZM58.829 70.269C55.674 72.035 53.214 73.862 53.362 74.329C53.509 74.796 56.428 76.75 59.847 78.671L66.064 82.162V74.571C66.064 70.396 65.726 66.998 65.314 67.019C64.902 67.041 61.983 68.503 58.829 70.269ZM69.064 73.98C69.064 78.05 69.489 80.98 70.079 80.98C71.141 80.98 82.064 75.035 82.064 74.457C82.064 73.996 70.446 66.98 69.683 66.98C69.343 66.98 69.064 70.13 69.064 73.98ZM41.314 80.553C37.877 82.502 35.064 84.273 35.064 84.489C35.064 84.985 47.526 91.98 48.41 91.98C48.77 91.98 49.064 88.605 49.064 84.48C49.064 80.355 48.726 76.987 48.314 76.995C47.902 77.004 44.752 78.605 41.314 80.553ZM51.064 84.48C51.064 88.605 51.402 91.962 51.814 91.941C53.404 91.859 63.324 85.428 63.324 84.48C63.324 83.532 53.404 77.101 51.814 77.019C51.402 76.998 51.064 80.355 51.064 84.48ZM33.729 87.648C32.689 88.688 32.95 101.98 34.01 101.98C34.531 101.98 37.719 100.361 41.094 98.383C47.952 94.364 48.083 94.906 38.979 89.637C36.457 88.178 34.095 87.283 33.729 87.648Z"/>
</mask>
<path fill-rule="evenodd" clip-rule="evenodd" d="M86.064 23.281V34.582L78.564 38.849C74.439 41.196 71.064 43.446 71.064 43.849C71.064 44.252 74.453 46.51 78.596 48.867L86.128 53.153L85.846 64.286L85.564 75.419L59.103 90.628C44.55 98.993 32.287 105.618 31.853 105.35C31.419 105.081 31.064 100.152 31.064 94.396V83.931L35.314 81.403C37.652 80.013 41.327 77.83 43.482 76.552L47.399 74.227L39.2 69.498L31 64.768L31.282 53.768L31.564 42.768L58.064 27.394C72.639 18.939 84.902 12.011 85.314 12C85.726 11.989 86.064 17.065 86.064 23.281ZM75.809 20.137C73.194 21.797 71.286 23.53 71.569 23.987C72.208 25.021 80.996 29.98 82.19 29.98C82.671 29.98 83.064 27.055 83.064 23.48C83.064 15.938 82.694 15.767 75.809 20.137ZM59.312 29.649C55.873 31.583 53.286 33.53 53.562 33.977C54.311 35.189 65.196 41.182 65.711 40.666C65.956 40.421 66.023 37.051 65.86 33.177L65.564 26.133L59.312 29.649ZM69.064 33.438C69.064 37.586 69.265 40.98 69.51 40.98C69.756 40.98 72.719 39.361 76.094 37.383C82.955 33.362 83.109 33.954 73.814 28.621L69.064 25.896V33.438ZM41.266 39.964C36.554 42.725 35.295 43.905 36.266 44.645C38.819 46.593 46.94 50.98 47.992 50.98C49.213 50.98 49.52 37.349 48.314 36.686C47.902 36.459 44.73 37.934 41.266 39.964ZM51.064 43.422C51.064 47.579 51.344 50.98 51.687 50.98C53.157 50.98 64.05 44.438 63.805 43.702C63.656 43.257 60.729 41.311 57.299 39.378L51.064 35.864V43.422ZM33.064 53.98C33.064 58.511 33.462 60.98 34.192 60.98C35.87 60.98 46.064 54.969 46.064 53.98C46.064 52.991 35.87 46.98 34.192 46.98C33.462 46.98 33.064 49.449 33.064 53.98ZM58.332 50.318C55.454 52.057 53.091 53.745 53.082 54.069C53.072 54.394 54.077 55.154 55.314 55.758C56.551 56.363 59.476 58.036 61.814 59.476L66.064 62.093V54.537C66.064 49.111 65.711 47.005 64.814 47.068C64.127 47.117 61.209 48.579 58.332 50.318ZM69.064 53.98C69.064 57.83 69.321 60.98 69.635 60.98C70.586 60.98 82.04 54.517 82.04 53.98C82.04 53.443 70.586 46.98 69.635 46.98C69.321 46.98 69.064 50.13 69.064 53.98ZM41.564 60.011C38.814 61.623 36.564 63.44 36.564 64.049C36.564 65.387 47.641 72.07 48.476 71.235C48.799 70.911 49.064 67.572 49.064 63.813C49.064 55.902 48.802 55.769 41.564 60.011ZM51.064 64.571V72.162L57.281 68.671C60.7 66.75 63.628 64.789 63.786 64.313C64.044 63.539 53.223 56.98 51.687 56.98C51.344 56.98 51.064 60.396 51.064 64.571ZM76.314 60.273C73.426 61.987 71.064 63.725 71.064 64.136C71.064 64.809 82.54 71.98 83.618 71.98C83.863 71.98 84.064 68.605 84.064 64.48C84.064 59.099 83.711 57.005 82.814 57.069C82.127 57.118 79.202 58.56 76.314 60.273ZM58.829 70.269C55.674 72.035 53.214 73.862 53.362 74.329C53.509 74.796 56.428 76.75 59.847 78.671L66.064 82.162V74.571C66.064 70.396 65.726 66.998 65.314 67.019C64.902 67.041 61.983 68.503 58.829 70.269ZM69.064 73.98C69.064 78.05 69.489 80.98 70.079 80.98C71.141 80.98 82.064 75.035 82.064 74.457C82.064 73.996 70.446 66.98 69.683 66.98C69.343 66.98 69.064 70.13 69.064 73.98ZM41.314 80.553C37.877 82.502 35.064 84.273 35.064 84.489C35.064 84.985 47.526 91.98 48.41 91.98C48.77 91.98 49.064 88.605 49.064 84.48C49.064 80.355 48.726 76.987 48.314 76.995C47.902 77.004 44.752 78.605 41.314 80.553ZM51.064 84.48C51.064 88.605 51.402 91.962 51.814 91.941C53.404 91.859 63.324 85.428 63.324 84.48C63.324 83.532 53.404 77.101 51.814 77.019C51.402 76.998 51.064 80.355 51.064 84.48ZM33.729 87.648C32.689 88.688 32.95 101.98 34.01 101.98C34.531 101.98 37.719 100.361 41.094 98.383C47.952 94.364 48.083 94.906 38.979 89.637C36.457 88.178 34.095 87.283 33.729 87.648Z" fill="black" stroke="black" stroke-width="2" mask="url(#path-2-inside-1_2_4)"/>
</mask>
<g mask="url(#mask0_2_4)">
<rect x="9" y="9" width="100" height="100" fill="url(#paint0_linear_2_4)"/>
</g>
<defs>
<linearGradient id="paint0_linear_2_4" x1="9" y1="59" x2="109" y2="59" gradientUnits="userSpaceOnUse">
<stop stop-color="#EC008C"/>
<stop offset="1" stop-color="#FC6767"/>
</linearGradient>
</defs>
</svg>